<?xml version="1.0" encoding="UTF-8"?><svg id="b" xmlns="http://www.w3.org/2000/svg" width="265" height="265.833" viewBox="0 0 265 265.833"><defs><style>.d{fill:#cb9854;}.e{fill:#febe69;}</style></defs><g id="c"><path class="e" d="M132.495,0C54.152,0,0,60.678,0,131.681c0,79.443,55.316,134.151,132.5,134.152,80.158,0,132.5-55.219,132.5-134.151C265,60.195,210.563,0,132.495,0Z"/><path class="d" d="M82.938,141.408c-1.591,0-3.101.046-4.448.102-5.879.245-14.441,1.562-15.962,8.466-.4,1.814.104,3.686.421,5.516,1.077,6.221-.331,12.036-2.682,17.773-.765,1.867-1.451,3.734-1.879,5.592-.847,3.678-.687,7.32,1.857,10.852,4.247,5.897,14.631,7.334,22.696,7.31,8.064.024,18.446-1.413,22.693-7.31,2.544-3.532,2.704-7.174,1.857-10.852-.428-1.858-1.113-3.725-1.879-5.592-2.352-5.737-3.759-11.551-2.682-17.773.317-1.83.82-3.702.421-5.516-1.521-6.904-10.083-8.221-15.962-8.466-1.348-.056-2.857-.103-4.448-.102Z"/><path class="d" d="M136.158,155.127c-1.62-4.61-5.937-7.587-9.408-11.031-2.125-2.109-3.934-4.128-5.952-6.541-2.162-2.586-2.983-5.666-2.543-8.785.031-.214.112-.463.235-.728-4.8-4.619-9.654-9.17-14.563-13.666-.014-.014-.596-.596-1.384-1.384-1.833,2.401-3.666,4.801-5.499,7.202-.425.557-.892,1.144-1.559,1.36-.932.301-1.913-.218-2.741-.741-5.217-3.291-9.861-7.488-13.662-12.346-.096-.122-.191-.245-.286-.368-.426-.555-.857-1.155-.933-1.85-.117-1.067.617-2.02,1.308-2.842,5.392-6.413,10.784-12.826,16.176-19.239.838-.997,1.788-2.06,3.073-2.272.906-.15,1.821.157,2.67.506,5.112,2.101,9.332,5.792,13.292,9.704,1.341,1.325,1.482,3.444.338,4.942-2.165,2.836-4.33,5.671-6.496,8.507,6.303,6.122,12.729,12.12,19.257,18.018,2.621.377,5.122,1.419,7.527,2.601-1.297-3.144-1.875-6.55-1.403-9.906.61-4.337,2.906-8.297,5.814-11.573,3.596-4.052,8.119-7.179,12.37-10.483.192-6.871,3.163-13.487,7.049-19.046,3.616-5.173,8.779-10.786,15.822-8.567,3.09.973,5.418,3.555,6.364,6.62,1.063,3.445.613,7.373-.534,10.74-1.562,4.584-4.435,8.62-6.637,12.895,3.68-5.195,5.617-10.476,10.985-13.653,3.162-1.871,6.821-3.083,10.51-3.182,6.045-.161,12.063,3.225,11.713,9.941-.154,2.954-1.488,5.737-3.195,8.153-4.147,5.872-8.969,10.542-14.153,15.517,1.981,2.966,2.173,6.842,1.856,10.429-.881,9.98-5.352,18.703-15.12,22.148.878,1.52,2.072,2.888,3.128,4.302,4.061,5.45,6.389,12.359,7.559,19.033,3.188-.91,6.853.148,9.031,2.648,2.285,2.591,2.821,6.578,1.303,9.69-1.66,3.404-5.649,5.506-9.4,4.839-.238,3.236-.896,6.444-3.173,8.807-1.717,1.779-4.063,2.837-6.455,3.389-4.201.981-8.341.874-12.603.736-1.625-.061-3.297-.261-4.738-1.027-1.316-.7-2.427-1.949-2.67-3.399l-1.856.52c-4.923,1.34-10.109,2.071-15.225,1.973-3.005-.057-6.553-.511-9.12-2.218-2.254-1.499-3.371-4.635-3.587-7.231-.459-5.508,1.659-10.768,5.17-14.923,1.13-1.337,2.454-2.61,3.074-4.156.551-1.375.94-3.048.855-4.493-.162-2.783-.864-5.371-1.126-8.149"/></g></svg>