<?xml version="1.0" encoding="UTF-8"?><svg id="b" xmlns="http://www.w3.org/2000/svg" width="314.861" height="246.268" viewBox="0 0 314.861 246.268"><defs><style>.d{fill:#fff;}.e{fill:none;}.f,.g{fill:#f8b8b4;}.g{opacity:.5;}.h{fill:#211715;}.i{fill:#febe69;}</style></defs><g id="c"><path class="i" d="M116.02,2.4c-21.86,0-36.97,16.931-36.97,36.743,0,22.167,15.435,37.432,36.971,37.432,22.367,0,36.971-15.408,36.972-37.432,0-19.947-15.189-36.743-36.973-36.743Z"/><path class="h" d="M116.02,0c-8.522.037-17.035,2.536-23.872,7.708-6.466,4.893-11.24,11.656-13.676,19.398-4.818,15.318-.202,33.733,12.665,43.729,12.712,9.876,31.979,10.881,45.881,2.853,14.173-8.184,20.252-25.233,17.856-40.962-2.506-16.45-15.694-29.708-32.163-32.193C120.491.199,118.265.01,116.02,0c-3.089-.013-3.093,4.787,0,4.8,7.605.033,15.036,2.254,21.162,6.823,5.591,4.17,9.738,10.217,11.8,16.861,4.152,13.381.483,29.451-10.488,38.411-10.772,8.798-28.042,9.654-40.153,2.977-12.616-6.955-18.676-21.941-16.522-35.999,1.08-7.048,4.239-13.705,9.215-18.834,5.158-5.315,11.917-8.645,19.208-9.82,1.908-.307,3.848-.411,5.778-.419C119.107,4.787,119.114-.013,116.02,0Z"/><path class="e" d="M138.137,39.261c0-9.45-5.939-17.667-15.044-20.249"/><path class="i" d="M186.116,218.143c1.043,4.526.841,9.001-2.288,13.341-5.215,7.234-17.985,9.001-27.894,8.984-9.909.017-22.662-1.733-27.877-8.984-3.129-4.341-3.331-8.816-2.288-13.341.522-2.288,1.363-4.576,2.305-6.864,2.894-7.049,4.627-14.199,3.297-21.854-.387-2.238-1.009-4.542-.522-6.763,1.884-8.496,12.399-10.111,19.617-10.414,1.666-.067,3.516-.118,5.468-.118,1.968,0,3.819.05,5.468.118,7.234.303,17.749,1.918,19.617,10.414.488,2.221-.118,4.526-.522,6.763-1.312,7.655.421,14.805,3.297,21.854.942,2.288,1.783,4.576,2.322,6.864Z"/><path class="h" d="M155.94,169.723c-6.643.014-13.759.188-19.84,3.183-2.715,1.337-5.209,3.478-6.532,6.243-.862,1.802-1.365,3.743-1.282,5.752.095,2.3.776,4.525.995,6.809.429,4.478-.189,8.889-1.469,13.184-1.331,4.467-3.553,8.643-4.491,13.228-.894,4.372-.605,8.807,1.539,12.786,1.698,3.152,4.374,5.603,7.5,7.305,6.334,3.45,13.913,4.41,21.022,4.616s14.495-.24,21.25-2.519c3.312-1.118,6.514-2.7,9.091-5.099,3.054-2.843,4.885-6.81,5.282-10.939.435-4.525-1.036-9.04-2.701-13.179-1.643-4.083-3.144-8.302-3.641-12.701-.251-2.217-.276-4.46-.064-6.681.218-2.285.902-4.509.995-6.809.142-3.515-1.442-7.03-4.016-9.399-4.606-4.24-11.346-5.287-17.365-5.615-2.088-.114-4.181-.16-6.272-.164-3.089-.006-3.093,4.794,0,4.8,5.744.012,12.105-.038,17.285,2.464,2.233,1.079,4.123,2.531,5.064,4.851.576,1.418.588,3.108.318,4.694-.37,2.175-.795,4.323-.91,6.533-.215,4.118.392,8.286,1.494,12.25,1.17,4.207,3.167,8.118,4.316,12.326.963,3.526,1.21,7.308-.526,10.647-1.384,2.663-3.516,4.539-6.172,5.935-5.571,2.928-12.283,3.645-18.482,3.812-6.412.173-12.988-.199-19.142-2.137-6.021-1.897-11.451-5.981-11.581-12.844-.078-4.119,1.543-8.021,3.043-11.778,1.576-3.946,2.753-8.006,3.289-12.227.543-4.277.05-8.299-.665-12.517-.516-3.046.254-5.638,2.424-7.636,3.588-3.303,9.478-3.985,14.242-4.223,1.998-.1,4-.146,6.001-.15,3.088-.006,3.094-4.806,0-4.8Z"/><path class="d" d="M252.684,238.483l-2.305.404c-6.057,1.649-12.416,2.557-18.708,2.423-3.701-.067-8.059-.622-11.205-2.725-2.776-1.834-4.156-5.687-4.408-8.883-.572-6.763,2.036-13.224,6.343-18.338,1.396-1.649,3.028-3.213,3.785-5.098.673-1.699,1.144-3.752,1.043-5.535-.202-3.415-1.06-6.595-1.38-10.01l-.555-1.733c-2.002-5.67-7.302-9.32-11.558-13.56-2.625-2.591-4.845-5.081-7.318-8.042-2.658-3.18-3.668-6.965-3.129-10.801.034-.269.135-.572.286-.892.589-1.363,1.935-3.129,2.742-3.886,1.346-1.295,3.197-1.699,5.064-1.783.925-.034,1.817,0,2.725.101,2.187.269,4.307.908,6.376,1.733l2.793-.05c1.094,3.197,2.793,6.225,4.896,8.866,4.357,5.451,10.279,9.455,16.437,12.719,9.001,4.862,19.23,8.16,29.391,4.896.454-.151.892-.303,1.312-.471l.908,2.305c.774,1.077,1.632,2.12,2.423,3.18,4.997,6.696,7.84,15.175,9.287,23.385,0,.034.017.084.017.118.454,2.641.757,5.283.993,7.958.219,2.658.437,4.997.353,7.924-.05,1.716-.084,3.499-.219,5.283-.303,3.92-1.127,7.789-3.886,10.65-2.12,2.187-4.997,3.499-7.941,4.172-5.165,1.211-10.246,1.077-15.478.908-2.002-.084-4.055-.32-5.821-1.262-1.565-.824-2.877-2.288-3.264-3.954Z"/><path class="i" d="M193.363,130.372c6.814,6.578,13.745,13.039,20.778,19.398l-.034.353c-.908-.101-1.8-.135-2.725-.101-1.867.084-3.718.488-5.064,1.783-.808.757-2.153,2.524-2.742,3.886-5.888-5.687-11.861-11.255-17.901-16.79l-.017-.017-1.867-1.43c2.305-3.028,4.627-6.057,6.948-9.085l2.625,2.002Z"/><path class="i" d="M198.528,111.53c1.649,1.632,1.817,4.24.421,6.073-2.742,3.584-5.485,7.184-8.21,10.767-2.322,3.028-4.643,6.057-6.948,9.085-2.187,2.86-4.374,5.737-6.561,8.597-.522.69-1.094,1.413-1.918,1.666-1.144.37-2.355-.269-3.365-.908-6.41-4.038-12.13-9.203-16.79-15.175-.118-.151-.236-.286-.353-.437-.522-.69-1.06-1.43-1.144-2.288-.151-1.312.757-2.473,1.598-3.483,6.629-7.89,13.257-15.764,19.886-23.654,1.026-1.211,2.187-2.524,3.769-2.793,1.11-.168,2.238.202,3.281.622,6.292,2.591,11.474,7.133,16.336,11.928Z"/><path class="d" d="M289.074,227.968c.135-1.783.168-3.567.219-5.283.084-2.927-.135-5.266-.353-7.924-.236-2.675-.538-5.316-.993-7.958,0-.034-.017-.084-.017-.118,3.92-1.11,8.429.185,11.104,3.264,2.81,3.18,3.466,8.076,1.598,11.911-1.867,3.819-6.124,6.309-10.364,6.073l-1.195.034Z"/><path class="f" d="M308.489,118.915c-4.997,7.083-10.801,12.736-17.026,18.725l-.404.269c-.118-.185-.252-.37-.387-.555l-.908-1.245c-4.442-3.836-2.692-10.111-.639-13.947,3.449-6.46,10.515-14.654,19.566-10.767l2.961,1.481c-.723,2.153-1.851,4.172-3.163,6.04Z"/><path class="d" d="M271.863,117.014c4.357-6.275,6.78-12.601,13.24-16.42,3.886-2.305,8.395-3.802,12.921-3.92,7.436-.202,14.822,3.97,14.401,12.214-.067,1.363-.353,2.692-.774,3.987l-2.961-1.481c-9.051-3.886-16.117,4.307-19.566,10.767-2.053,3.836-3.802,10.111.639,13.947l.908,1.245c.135.185.269.37.387.555,2.473,3.651,2.725,8.446,2.322,12.887-1.077,12.096-6.41,22.696-18.069,27.019-.421.168-.858.32-1.312.471-10.162,3.264-20.391-.034-29.391-4.896-6.158-3.264-12.08-7.268-16.437-12.719-2.103-2.641-3.802-5.67-4.896-8.866-1.161-3.415-1.615-7.016-1.127-10.582.757-5.333,3.584-10.195,7.15-14.216,3.567-4.038,7.89-7.318,12.181-10.565l3.55-1.38c3.684-.875,7.52-1.8,10.683-3.886,3.079-2.036,6.057-5.35,7.84-8.412,1.598-2.776,2.12-6.174,1.985-9.304-.151-3.146-1.632-6.309-4.357-8.143l-3.651-.034c3.954-4.122,8.934-7.032,15.074-5.098,3.802,1.195,6.662,4.374,7.823,8.143,1.312,4.223.757,9.051-.656,13.19-1.867,5.501-5.283,10.347-7.958,15.461l.05.034Z"/><path class="f" d="M265.538,93.461c.135,3.129-.387,6.528-1.985,9.304-1.783,3.062-4.761,6.376-7.84,8.412-3.163,2.086-6.999,3.011-10.683,3.886l-.522-1.144c.286-8.378,3.92-16.42,8.648-23.2,1.295-1.851,2.742-3.752,4.374-5.434l3.651.034c2.725,1.834,4.206,4.997,4.357,8.143Z"/><path class="h" d="M309.322,109.078c-6.074-2.513-12.269-.186-16.725,4.261-3.91,3.903-7.233,9.265-7.896,14.826-.428,3.593.631,7.172,3.363,9.635,2.289,2.064,5.694-1.32,3.394-3.394-4.498-4.056-.777-10.818,2.032-14.742,1.665-2.326,3.769-4.467,6.321-5.804,2.676-1.402,5.484-1.292,8.235-.154,1.198.496,2.639-.536,2.952-1.676.379-1.38-.473-2.455-1.676-2.952h0Z"/><path class="h" d="M273.611,118.697c3.226-4.579,5.581-9.954,9.731-13.815,4.174-3.884,10.504-6.08,16.178-5.783,3.911.205,8.313,1.993,9.902,5.8,2.281,5.462-1.679,11.226-4.878,15.352-4.41,5.689-9.6,10.715-14.78,15.69-2.232,2.144,1.165,5.535,3.394,3.394,5.226-5.019,10.418-10.095,14.881-15.821,4.165-5.343,8.292-11.902,6.309-18.989-1.5-5.361-6.443-8.846-11.741-9.848-6.722-1.272-14.119.685-19.739,4.494-6.224,4.217-9.204,11.147-13.402,17.105-.747,1.06-.191,2.669.861,3.284,1.2.702,2.535.202,3.284-.861h0Z"/><path class="h" d="M246.906,113.911c.247-5.959,2.246-11.684,5.123-16.869,2.489-4.484,5.597-9.187,9.701-12.365,3.566-2.762,8.251-3.723,12.249-1.22,4.55,2.849,5.378,8.796,4.462,13.678-1.288,6.865-5.504,12.579-8.703,18.639-1.441,2.73,2.7,5.158,4.145,2.423,3.288-6.227,7.567-12.14,9.058-19.145,1.357-6.371.592-13.817-4.634-18.313-4.755-4.091-11.442-4.57-16.887-1.58-5.152,2.829-8.932,7.972-11.993,12.852-4.138,6.595-6.996,14.067-7.321,21.9-.128,3.089,4.672,3.083,4.8,0h0Z"/><path class="h" d="M259.974,87.383c4.971,3.523,3.508,11.362.558,15.656-1.753,2.55-4.075,4.932-6.75,6.513-2.871,1.698-6.185,2.438-9.397,3.204-3.003.717-1.732,5.346,1.276,4.629,3.875-.925,7.886-1.914,11.255-4.133s6.29-5.344,8.411-8.788c4.08-6.625,3.771-16.475-2.93-21.225-1.058-.75-2.67-.188-3.284.861-.703,1.203-.2,2.532.861,3.284h0Z"/><path class="h" d="M240.263,114.368c-9.051,6.873-18.959,14.797-20.51,26.857-1.493,11.605,5.738,21.901,14.582,28.577,4.508,3.403,9.58,6.21,14.77,8.422,5.452,2.324,11.307,3.939,17.282,3.762,9.979-.295,19.261-5.512,24.351-14.136,2.546-4.314,4.021-9.207,4.706-14.148.815-5.877.988-12.542-2.704-17.554-.768-1.042-2.081-1.565-3.284-.861-1.028.601-1.634,2.234-.861,3.284,2.828,3.839,2.783,8.732,2.284,13.278-.418,3.8-1.361,7.676-2.997,11.142-3.501,7.415-10.008,12.439-18.109,13.875-10.327,1.83-20.932-3.286-29.398-8.699-8.002-5.116-15.512-12.985-15.997-22.998-.579-11.962,9.725-20.14,18.306-26.657,1.031-.783,1.571-2.069.861-3.284-.594-1.015-2.245-1.65-3.284-.861h0Z"/><path class="h" d="M244.407,156.417c2.017,2.39,5.081,3.756,8.177,3.906,1.256.061,2.456-1.147,2.4-2.4-.061-1.352-1.055-2.335-2.4-2.4-.272-.013-.542-.038-.811-.073l.638.086c-.776-.112-1.528-.32-2.252-.62l.573.242c-.721-.308-1.397-.699-2.021-1.173l.486.375c-.511-.397-.977-.842-1.394-1.336-.377-.446-1.134-.703-1.697-.703-.589,0-1.292.261-1.697.703-.42.457-.732,1.058-.703,1.697.03.666.273,1.188.703,1.697h0Z"/><path class="h" d="M205.449,154.167c-3.019-2.906-6.057-5.792-9.113-8.659-2.968-2.784-6.098-5.443-8.974-8.319-2.187-2.187-5.582,1.206-3.394,3.394,2.876,2.876,6.006,5.535,8.974,8.319,3.056,2.867,6.094,5.754,9.113,8.659,2.226,2.143,5.625-1.247,3.394-3.394h0Z"/><path class="h" d="M191.662,132.076c6.826,6.573,13.761,13.03,20.787,19.389.961.869,2.445.949,3.394,0,.883-.883.965-2.521,0-3.394-7.026-6.358-13.962-12.816-20.787-19.389-2.226-2.143-5.624,1.246-3.394,3.394h0Z"/><path class="h" d="M156.846,129.944c-.199-.255-.833-.929-.808-1.419.031-.595.884-1.366,1.238-1.788,1.494-1.781,2.993-3.559,4.489-5.339,2.993-3.559,5.985-7.118,8.978-10.677,1.496-1.78,2.993-3.559,4.489-5.339.654-.778,1.299-1.566,1.966-2.332.488-.56,1.03-1.275,1.738-1.572,1.341-.563,3.371.755,4.542,1.356,1.75.898,3.419,1.947,5.016,3.094,1.558,1.12,3.029,2.354,4.458,3.632.69.617,1.368,1.246,2.039,1.884.675.641,1.6,1.32,2.112,2.095.85,1.285.129,2.384-.684,3.449-1.408,1.844-2.816,3.687-4.223,5.531-5.58,7.308-11.089,14.676-16.743,21.927-.217.279-.561.886-.909,1.027.253-.103-.166-.066-.323-.129-.956-.382-1.839-1.086-2.689-1.658-1.849-1.244-3.628-2.582-5.329-4.022-3.442-2.914-6.567-6.179-9.357-9.72-.803-1.019-2.554-.84-3.394,0-1.006,1.006-.805,2.372,0,3.394,2.923,3.71,6.215,7.116,9.85,10.134,1.807,1.5,3.685,2.922,5.63,4.239,1.93,1.308,4.159,2.938,6.63,2.414,2.533-.537,3.94-3.131,5.393-5.034,1.659-2.173,3.318-4.346,4.977-6.519,3.268-4.28,6.536-8.56,9.804-12.84,1.609-2.107,3.218-4.214,4.827-6.321,1.429-1.872,2.094-4.068,1.495-6.405-.573-2.236-2.375-3.733-3.984-5.249-1.728-1.629-3.515-3.19-5.392-4.645-1.86-1.443-3.79-2.788-5.853-3.927-2.032-1.122-4.326-2.354-6.664-2.595-2.381-.245-4.413.948-5.987,2.645-1.775,1.913-3.388,3.998-5.067,5.995-3.901,4.64-7.802,9.279-11.703,13.919-.962,1.144-1.924,2.288-2.886,3.432-.869,1.034-1.872,2.063-2.513,3.263-1.524,2.854-.357,5.185,1.442,7.495.797,1.023,2.557.837,3.394,0,1.01-1.01.799-2.368,0-3.394Z"/><path class="h" d="M227.605,188.345c-2.653-7.24-9.435-11.621-14.533-17.03-1.442-1.531-2.834-3.108-4.193-4.712-1.23-1.452-2.3-2.967-2.853-4.81-.449-1.497-.798-3.522-.307-5.026.292-.896,1.312-2.288,2.137-3.097,1.326-1.3,3.351-1.321,5.1-1.232,2.381.121,4.686.867,6.888,1.741,1.205.478,2.635-.523,2.952-1.676.375-1.365-.467-2.472-1.676-2.952-4.129-1.638-9.331-2.879-13.647-1.201-3.537,1.376-6.362,5.309-6.674,9.064-.395,4.735,1.546,8.87,4.535,12.405,2.93,3.466,6.022,6.767,9.377,9.824,3.156,2.876,6.752,5.848,8.266,9.98.446,1.216,1.629,2.04,2.952,1.676,1.172-.322,2.124-1.729,1.676-2.952h0Z"/><path class="h" d="M223.45,190.722c.544,5.364,3.085,11.72-.618,16.489-1.759,2.266-3.741,4.274-5.235,6.75-1.423,2.358-2.545,4.954-3.222,7.626-1.282,5.056-1.25,10.975,1.54,15.55,2.977,4.88,8.909,6.218,14.244,6.524,6.986.401,14.12-.644,20.857-2.454,2.98-.801,1.716-5.432-1.276-4.629-5.672,1.524-11.484,2.389-17.365,2.348-3.993-.028-9.83-.282-12.223-4.06s-2.116-8.837-.882-12.976c.715-2.399,1.84-4.634,3.236-6.709,1.441-2.14,3.357-3.892,4.814-6.017,1.66-2.422,2.475-5.745,2.297-8.661-.201-3.293-1.036-6.505-1.368-9.782-.131-1.289-1.009-2.4-2.4-2.4-1.196,0-2.532,1.102-2.4,2.4h0Z"/><path class="h" d="M275.443,181.445h.019l-2.072-1.189c1.849,2.766,4.051,5.238,5.729,8.127,1.613,2.778,2.904,5.717,3.934,8.757,2.151,6.35,3.118,12.909,3.648,19.57.248,3.115.22,6.213.083,9.333-.117,2.677-.328,5.483-1.399,7.976-2.608,6.071-10.006,7.117-15.849,7.337-1.957.074-3.916.047-5.874-.005-1.849-.05-3.719-.031-5.503-.585-1.178-.366-2.442-1.124-2.966-2.303-.305-.687-.38-1.794.501-1.971,1.271-.255,2.002-1.766,1.676-2.952-.364-1.324-1.677-1.932-2.952-1.676-3.949.793-5,5.562-3.478,8.771,1.737,3.662,5.77,5.053,9.535,5.381,4.127.36,8.449.347,12.565-.113,3.984-.445,8.12-1.279,11.471-3.61,3.1-2.156,5.149-5.226,6.117-8.864.897-3.371.952-6.914,1.052-10.379.116-4.021-.248-8.058-.722-12.048s-1.182-7.976-2.268-11.863c-1.165-4.168-2.738-8.262-4.805-12.069-1.046-1.926-2.236-3.765-3.567-5.506-.675-.882-1.375-1.745-2.029-2.643-.751-1.031-1.383-2.275-2.846-2.275-3.089,0-3.094,4.8,0,4.8h0Z"/><path class="h" d="M288.574,209.001c4.875-1.301,10.093,1.933,10.666,7.133.583,5.295-3.802,9.602-8.967,9.406-3.089-.117-3.084,4.683,0,4.8,5.979.226,11.757-3.817,13.348-9.632s-1.019-12.407-6.432-15.22c-3.048-1.584-6.567-2.003-9.89-1.116-2.982.796-1.717,5.427,1.276,4.629h0Z"/><path class="h" d="M247.052,136.039c-.451-.755-1.154-1.465-1.961-1.831-.707-.321-1.145-.44-1.926-.517-.511-.051-1.029.017-1.531.103-.91.156-1.9.714-2.498,1.42-.507.599-.773,1.047-1.046,1.78-.174.469-.234.99-.241,1.486,0,.908.24,1.891.764,2.645.252.362.52.723.866,1,.597.478,1.011.731,1.744.993.874.313,1.994.278,2.888.068.842-.197,1.755-.722,2.318-1.385.287-.338.572-.685.756-1.09.325-.717.454-1.19.524-1.988.079-.904-.194-1.911-.657-2.686Z"/><path class="h" d="M273.432,146.506c-.451-.755-1.154-1.465-1.961-1.831-.707-.321-1.145-.44-1.926-.517-.511-.051-1.029.017-1.531.103-.91.156-1.9.714-2.498,1.42-.507.599-.773,1.047-1.046,1.78-.174.469-.234.99-.241,1.486,0,.908.24,1.891.764,2.645.252.362.52.723.866,1,.597.478,1.011.731,1.744.993.874.313,1.994.278,2.888.068.842-.197,1.755-.722,2.318-1.385.287-.338.572-.685.756-1.09.325-.717.454-1.19.524-1.988.079-.904-.194-1.911-.657-2.686Z"/><path class="d" d="M52.147,235.926l-5.973.976c-6.208-.572-12.467-1.262-18.372-3.297-5.905-2.036-11.474-5.569-14.889-10.784-4.643-7.1-4.559-16.454-1.228-24.344.723-1.682,1.581-3.281,2.574-4.795,2.843-4.341,6.595-7.941,10.851-10.902,4.189-2.927,8.866-5.249,13.627-7.083l1.077.067c-.421,8.176,2.187,15.831,9.371,21.265,7.554,5.72,17.11,5.939,26.077,4.509,5.182-.791,10.38-2.069,15.041-4.458v.017c3.634,5.855,6.326,12.281,7.924,18.994.925,3.785,1.413,8.076-.673,11.356-2.372,3.718-7.133,4.913-11.44,5.787l-12.5.875c-6.343,3.449-14.115,4.189-20.996,1.968l-.454-.151h-.017Z"/><path class="d" d="M79.116,115.147c4.526.135,7.554,2.625,9.674,5.939l-1.598,1.699c-2.81.757-4.997,2.978-6.023,5.569-1.043,2.574-1.615,5.586-1.077,8.378.589,3.096,2.12,6.746,4.105,9.371,1.783,2.339,4.273,4.088,6.763,5.703.353.236.707.471,1.06.69l2.574,2.187c2.641,3.987,5.3,8.008,7.117,12.433,1.817,4.425,2.759,9.337,1.834,14.031-1.211,6.073-5.518,11.238-10.767,14.536-.808.505-1.632.976-2.473,1.396-4.66,2.389-9.859,3.668-15.041,4.458-8.967,1.43-18.523,1.211-26.077-4.509-7.184-5.434-9.792-13.089-9.371-21.265.118-2.473.522-4.98,1.161-7.487.959-3.769,2.524-7.655,5.586-10.01l-.118-.454,1.884-.791c4.845-1.918,5.215-7.705,4.627-11.508-.993-6.444-4.526-15.394-13.257-14.771l-2.894-.101c.034-1.043.202-2.086.488-3.096,2.069-7.049,9.489-8.362,15.663-6.023,3.769,1.43,7.1,4.004,9.691,7.066,4.307,5.131,4.475,11.137,6.292,17.682l.05-.017c-.74-5.081-2.17-10.162-2.137-15.31.034-3.886.976-8.092,3.314-11.272,2.086-2.81,5.417-4.643,8.95-4.526Z"/><path class="d" d="M24.875,182.443l.236.336c-4.256,2.961-8.008,6.561-10.851,10.902-.993,1.514-1.851,3.112-2.574,4.795-3.297-.118-7.251-2.17-8.614-6.174-1.716-4.997.185-11.003,4.458-14.115,5.148-3.769,15.764-3.197,17.346,4.256Z"/><path class="f" d="M92.34,129.683c1.985,7.066,2.675,14.889.454,21.989l-1.834.135c-2.49-1.615-4.98-3.365-6.763-5.703-1.985-2.625-3.516-6.275-4.105-9.371-.538-2.793.034-5.804,1.077-8.378,1.026-2.591,3.213-4.812,6.023-5.569l1.598-1.699c1.649,2.591,2.742,5.703,3.55,8.597Z"/><path class="f" d="M52.955,145.514c.589,3.802.219,9.59-4.627,11.508l-1.884.791c-3.466-6.847-6.662-13.308-8.782-20.71-.606-2.086-.959-4.29-.858-6.46l2.894.101c8.732-.622,12.265,8.328,13.257,14.771Z"/><path class="h" d="M38.099,173.387c-12.429,4.798-24.525,12.871-29.283,25.89-2.256,6.171-2.687,13.317-.484,19.567,2.263,6.419,7.109,11.391,13.055,14.57,7.631,4.079,16.308,5.106,24.796,5.883,1.293.118,2.4-1.188,2.4-2.4,0-1.397-1.104-2.281-2.4-2.4-11.948-1.094-27.012-3.28-32.678-15.568-4.967-10.772.414-23.227,8.581-30.698,4.962-4.54,11.046-7.805,17.29-10.216,1.208-.467,2.044-1.613,1.676-2.952-.317-1.155-1.737-2.146-2.952-1.676h0Z"/><path class="h" d="M49.135,224.028l-.063.181-.861.861c-.018.011-1.201.214-1.109.072-.017.027.408.749.478.902.381.827.642,1.72.807,2.615.331,1.788-.143,3.407-.134,5.175.023,4.622,5.716,5.294,9.246,5.713,3.786.45,7.706.108,11.373-.932,3.387-.96,7.869-2.584,9.835-5.718,2.592-4.131-.253-8.808-2.819-12.122-.794-1.026-2.559-.835-3.394,0-1.012,1.012-.796,2.366,0,3.394,1.5,1.938,3.852,5.289,1.119,7.158-2.716,1.857-6.136,2.922-9.367,3.387-3.39.488-6.902.237-10.19-.704-.271-.078-.896-.416-1.162-.367-.306.056.234.115.159.191.037-.038.061-.706.07-.781.066-.562.158-1.118.194-1.684.116-1.802-.122-3.692-.659-5.415-.584-1.878-1.424-3.97-3.23-4.964-1.884-1.037-4.321-.477-4.922,1.761-.802,2.987,3.827,4.261,4.629,1.276h0Z"/><path class="h" d="M88.232,198.304c2.01,3.265,3.771,6.691,5.151,10.271,1.357,3.521,2.625,7.289,3.105,11.047.386,3.026.043,6.229-2.505,8.233-2.378,1.87-5.617,2.477-8.503,3.073-3.023.625-1.744,5.253,1.276,4.629,3.669-.759,7.403-1.73,10.381-4.116,3.241-2.597,4.494-6.66,4.249-10.708-.26-4.294-1.574-8.58-3.058-12.593-1.579-4.272-3.565-8.38-5.952-12.258-1.617-2.626-5.77-.218-4.145,2.423h0Z"/><path class="h" d="M11.698,196.074c-1.026-.053-2.374-.43-3.458-1.072-1.163-.688-2.168-1.705-2.737-3.016-1.117-2.57-.813-5.765.446-8.245.68-1.338,1.591-2.557,2.786-3.481.4-.31.85-.569,1.298-.802.132-.069.812-.379.45-.229.284-.117.574-.22.866-.314.598-.193,1.209-.345,1.828-.456.156-.028.314-.055.471-.077-.108.015-.414.043.075-.002.319-.029.639-.052.959-.063.639-.021,1.279,0,1.916.063.396.039-.116-.04.42.064.346.067.69.14,1.03.233,1.079.295,2.225.866,2.898,1.489.217.201.423.415.616.64.306.357.093.125.037.044.109.155.211.313.308.475.414.697.448.826.662,1.756.692,3.009,5.321,1.736,4.629-1.276-1.667-7.251-10.028-9.435-16.451-7.717-7.895,2.113-12.762,11.247-9.935,19.011,1.679,4.611,6.046,7.526,10.887,7.775,1.296.067,2.4-1.151,2.4-2.4,0-1.355-1.1-2.333-2.4-2.4h0Z"/><path class="g" d="M36.804,130.513c-.128,2.207.239,4.453.844,6.594,2.129,7.405,5.332,13.846,8.805,20.703l.255.344c.166-.13.324-.235.497-.349l1.12-.788c4.849-1.91,5.222-7.69,4.625-11.504-.995-6.433-4.525-15.387-13.249-14.778l-2.898-.222Z"/><path class="g" d="M81.162,128.343c-1.042,2.598-1.598,5.606-1.071,8.391.591,3.102,2.118,6.745,4.113,9.359,2.038,2.683,4.979,4.582,7.813,6.404l.784-.825c2.204-7.11,1.518-14.923-.46-21.994-.544-1.933-1.211-3.935-2.076-5.832l-3.074-1.061c-2.824.755-4.993,2.972-6.031,5.558Z"/><path class="h" d="M58.774,170.288c-.671.55-1.226,1.379-1.437,2.209-.193.743-.224,1.211-.163,1.949.037.425.186.836.343,1.223.298.782.949,1.541,1.645,1.984.743.459,1.737.847,2.618.836.746-.005,1.203-.097,1.885-.337.395-.141.759-.386,1.096-.627.71-.509,1.233-1.323,1.519-2.14.145-.454.26-.932.243-1.417-.005-.746-.101-1.231-.377-1.926-.309-.826-1.035-1.638-1.803-2.065-.421-.24-.862-.461-1.34-.575-.723-.173-1.163-.207-1.89-.143-.85.075-1.701.495-2.34,1.029Z"/><path class="h" d="M83.962,169.244c-.659.554-1.226,1.378-1.436,2.208-.181.747-.212,1.215-.151,1.953.037.425.19.824.343,1.223.29.766.953,1.529,1.649,1.972.739.471,1.733.858,2.614.847.746-.005,1.191-.102,1.885-.337.395-.141.747-.39,1.096-.627.702-.525,1.233-1.323,1.519-2.14.145-.454.264-.944.243-1.416-.005-.746-.113-1.235-.372-1.937-.325-.818-1.035-1.637-1.807-2.053-.421-.24-.862-.461-1.34-.575-.735-.177-1.163-.207-1.902-.147-.838.079-1.689.499-2.339,1.029Z"/><path class="h" d="M39.702,133.14c5.506-.308,8.533,4.079,10.015,8.946.768,2.521,1.163,4.464,1.029,6.998-.11,2.08-.832,4.684-3.056,5.619-1.194.502-2.051,1.587-1.676,2.952.309,1.126,1.75,2.182,2.952,1.676,5.841-2.455,7.186-8.557,6.322-14.329-.729-4.871-2.636-10.26-6.471-13.559-2.563-2.204-5.73-3.293-9.115-3.104-3.071.172-3.091,4.973,0,4.8h0Z"/><path class="h" d="M71.387,146.107c-1.595-5.615-2.053-11.715-5.233-16.761-3.121-4.951-8.409-9.075-14.074-10.632-4.671-1.283-10.007-.752-13.71,2.589-4.777,4.31-4.518,11.439-2.836,17.104,2.136,7.191,5.463,13.94,8.845,20.61,1.397,2.756,5.54.329,4.145-2.423-2.614-5.156-5.218-10.334-7.16-15.788-1.628-4.572-3.891-10.947-.426-15.268,2.118-2.642,5.891-3.103,9.097-2.386,4.537,1.015,8.888,4.151,11.534,7.952,3.313,4.758,3.646,10.845,5.19,16.279.843,2.966,5.476,1.706,4.629-1.276h0Z"/><path class="h" d="M95.112,152.312c1.941-6.421,1.76-13.237.404-19.754-.995-4.78-2.513-9.922-5.484-13.875-3.184-4.237-8.073-6.642-13.421-5.731-5.991,1.02-9.956,6.24-11.384,11.852-1.885,7.41.342,14.748,1.451,22.081.194,1.283,1.809,1.99,2.952,1.676,1.372-.377,1.871-1.666,1.676-2.952-.845-5.593-2.533-11.196-1.934-16.905.458-4.365,2.534-9.358,7.071-10.782,8.833-2.773,12.608,8.067,14.147,14.582,1.439,6.094,1.719,12.491-.108,18.533-.896,2.963,3.735,4.23,4.629,1.276h0Z"/><path class="h" d="M86.556,120.477c-7.213,2.097-10.178,10.623-8.66,17.456.762,3.428,2.286,6.83,4.424,9.619,2.268,2.958,5.39,5.024,8.492,7.015,2.607,1.673,5.017-2.48,2.423-4.145-2.436-1.564-4.916-3.137-6.806-5.368-1.732-2.044-2.892-4.682-3.613-7.242-1.261-4.482-.121-11.212,5.016-12.706,2.96-.861,1.701-5.494-1.276-4.629h0Z"/><path class="h" d="M92.527,155.896c4.908,7.411,10.912,16.354,8.44,25.713-2.113,7.998-9.552,13.103-17.041,15.512-4.23,1.36-8.691,2.193-13.117,2.573-4.151.356-8.371.266-12.412-.826-7.549-2.04-13.648-7.78-15.542-15.435-1.003-4.055-.853-8.36-.033-12.434.798-3.966,2.053-8.699,5.589-11.121,2.533-1.735.135-5.896-2.423-4.145-3.953,2.708-6.033,7.018-7.227,11.544-1.131,4.287-1.702,8.845-1.234,13.27.978,9.252,6.478,17.403,15.048,21.29,8.993,4.078,19.407,3.191,28.779.977,9.251-2.186,18.66-7.187,22.842-16.174,2.505-5.382,2.609-11.323.953-16.981-1.729-5.906-5.112-11.105-8.478-16.187-1.698-2.564-5.857-.163-4.145,2.423h0Z"/><path class="h" d="M78.278,183.365c-.307.181-.623.341-.95.482l.573-.242c-.659.274-1.343.46-2.05.562l.638-.086c-.708.092-1.417.096-2.126.01l.638.086c-.424-.058-.839-.146-1.249-.267-1.204-.355-2.668.428-2.952,1.676-.293,1.288.387,2.572,1.676,2.952,2.73.806,5.774.415,8.224-1.028,1.082-.637,1.565-2.192.861-3.284s-2.126-1.543-3.284-.861h0Z"/></g></svg>